<svg xmlns="http://www.w3.org/2000/svg" width="23.687" height="22.751" viewBox="0 0 23.687 22.751">
  <g id="그룹_67" data-name="그룹 67" transform="translate(0 0)">
    <g id="그룹_54" data-name="그룹 54" transform="translate(0)">
      <path id="패스_413" data-name="패스 413" d="M176.643,446.733H173.2a.446.446,0,1,0,0,.891h3.444a2.611,2.611,0,0,1,2.608,2.608v.29h-6.215l.5-.569a.446.446,0,0,0-.335-.739h-1.893v-8.019a.445.445,0,0,0-.446-.445h-4.885a.445.445,0,0,0-.446.445v8.019H163.4a.445.445,0,0,0-.328.747l.516.561h-6.24v-.29a2.611,2.611,0,0,1,2.608-2.608H163.4a.446.446,0,1,0,0-.891h-3.444a3.5,3.5,0,0,0-3.5,3.5V460a3.5,3.5,0,0,0,3.5,3.5h16.689a3.5,3.5,0,0,0,3.5-3.5v-9.769a3.5,3.5,0,0,0-3.5-3.5m2.608,4.679v1.961h-8.714l1.718-1.961ZM165.975,450.1a.445.445,0,0,0,.446-.446V441.64h3.994v8.019a.445.445,0,0,0,.446.446h1.356l-3.807,4.345-4-4.345Zm-1.57,1.308,1.8,1.961h-8.864v-1.961Zm12.238,11.2H159.954A2.611,2.611,0,0,1,157.346,460v-5.737h9.683l1.061,1.154a.445.445,0,0,0,.328.144h.005a.449.449,0,0,0,.33-.152l1-1.146h9.495V460a2.611,2.611,0,0,1-2.608,2.608" transform="translate(-156.455 -440.749)" fill="#fff"/>
      <path id="패스_414" data-name="패스 414" d="M169.527,497.827h-4.2a.446.446,0,1,0,0,.891h4.2a.446.446,0,1,0,0-.891" transform="translate(-162.568 -482.15)" fill="#fff"/>
      <path id="패스_415" data-name="패스 415" d="M189.927,497.827h-2.366a.446.446,0,1,0,0,.891h2.366a.446.446,0,0,0,0-.891" transform="translate(-178.694 -482.15)" fill="#fff"/>
      <path id="패스_416" data-name="패스 416" d="M219.076,497.665a1.991,1.991,0,1,0,1.99,1.991,1.993,1.993,0,0,0-1.99-1.991m0,3.091a1.1,1.1,0,1,1,1.1-1.1,1.1,1.1,0,0,1-1.1,1.1" transform="translate(-200.433 -482.032)" fill="#fff"/>
    </g>
  </g>
</svg>
