<svg id="그룹_65" data-name="그룹 65" xmlns="http://www.w3.org/2000/svg" width="24.316" height="25.429" viewBox="0 0 24.316 25.429">
  <path id="패스_417" data-name="패스 417" d="M324.643,460.087H321.2a.445.445,0,1,0,0,.891h3.444a2.611,2.611,0,0,1,2.608,2.608v.516h-21.9v-.516a2.611,2.611,0,0,1,2.608-2.608H311.4a.445.445,0,1,0,0-.891h-3.444a3.5,3.5,0,0,0-3.5,3.5v9.769a3.5,3.5,0,0,0,3.5,3.5h16.689a3.5,3.5,0,0,0,3.5-3.5v-9.769a3.5,3.5,0,0,0-3.5-3.5m2.608,6.641h-21.9v-1.734h21.9Zm-2.608,9.235H307.954a2.611,2.611,0,0,1-2.608-2.608v-5.737h21.9v5.737a2.611,2.611,0,0,1-2.608,2.608" transform="translate(-303.826 -455.448)" fill="#fff"/>
  <path id="패스_418" data-name="패스 418" d="M317.527,495.38h-4.2a.446.446,0,1,0,0,.891h4.2a.446.446,0,1,0,0-.891" transform="translate(-309.939 -481.047)" fill="#fff"/>
  <path id="패스_419" data-name="패스 419" d="M337.927,495.38h-2.366a.446.446,0,0,0,0,.891h2.366a.446.446,0,1,0,0-.891" transform="translate(-326.065 -481.047)" fill="#fff"/>
  <path id="패스_420" data-name="패스 420" d="M367.076,495.218a1.991,1.991,0,1,0,1.99,1.991,1.993,1.993,0,0,0-1.99-1.991m0,3.091a1.1,1.1,0,1,1,1.1-1.1,1.1,1.1,0,0,1-1.1,1.1" transform="translate(-347.804 -480.93)" fill="#fff"/>
  <path id="패스_421" data-name="패스 421" d="M336.7,446.42a.445.445,0,0,0,.685-.57,7.359,7.359,0,0,0-11.318,0,.445.445,0,0,0,.685.57,6.468,6.468,0,0,1,9.949,0" transform="translate(-319.428 -443.197)" fill="#fff"/>
  <path id="패스_422" data-name="패스 422" d="M339.913,456.26a.445.445,0,1,0,.685-.57,4.813,4.813,0,0,0-7.4,0,.445.445,0,0,0,.685.57,3.922,3.922,0,0,1,6.034,0" transform="translate(-324.596 -450.999)" fill="#fff"/>
  <path id="패스_423" data-name="패스 423" d="M341.2,464.292a2.687,2.687,0,0,0-2.071.972.445.445,0,1,0,.685.57,1.8,1.8,0,0,1,2.772,0,.445.445,0,1,0,.684-.571,2.69,2.69,0,0,0-2.07-.97" transform="translate(-328.903 -458.498)" fill="#fff"/>
  <rect id="사각형_42" data-name="사각형 42" width="24.316" height="25.429" transform="translate(0 0)" fill="none"/>
</svg>
