<svg xmlns="http://www.w3.org/2000/svg" width="24.353" height="22.978" viewBox="0 0 24.353 22.978">
  <g id="그룹_68" data-name="그룹 68" transform="translate(0 0)">
    <path id="패스_410" data-name="패스 410" d="M204.746,197.741a.445.445,0,0,0-.446.446v4.169a.446.446,0,0,0,.891,0v-4.169a.445.445,0,0,0-.446-.446" transform="translate(-190.825 -183.072)" fill="#fff"/>
    <path id="패스_411" data-name="패스 411" d="M204.746,182.285a.446.446,0,0,0-.446.446v2.35a.446.446,0,1,0,.891,0v-2.35a.446.446,0,0,0-.446-.446" transform="translate(-190.825 -171.861)" fill="#fff"/>
    <path id="패스_412" data-name="패스 412" d="M157.915,152.8h.976V163.76a3.558,3.558,0,0,0,3.553,3.554h9.947a3.558,3.558,0,0,0,3.554-3.554V152.8h.976a2.676,2.676,0,0,0,2.673-2.673v-3.119a2.676,2.676,0,0,0-2.673-2.673H157.915a2.676,2.676,0,0,0-2.673,2.673v3.119a2.676,2.676,0,0,0,2.673,2.673m1.867,10.959V149.014H162.8v17.409h-.359a2.666,2.666,0,0,1-2.662-2.663m5.9,2.663h-1.99V149.014h1.99Zm9.371-2.663a2.667,2.667,0,0,1-2.663,2.663h-5.816V149.014h8.48Zm-18.922-16.75a1.784,1.784,0,0,1,1.782-1.782h19.007a1.784,1.784,0,0,1,1.782,1.782v3.119a1.784,1.784,0,0,1-1.782,1.782h-.976v-2.9h.884a.446.446,0,1,0,0-.891H158.008a.446.446,0,1,0,0,.891h.884v2.9h-.976a1.784,1.784,0,0,1-1.782-1.782Z" transform="translate(-155.242 -144.336)" fill="#fff"/>
  </g>
</svg>
